<svg width="24" height="24" viewBox="0 0 24 24" fill="none" xmlns="http://www.w3.org/2000/svg">
<path d="M11.9918 0C5.43845 0 0.0957602 5.28417 0.00126307 11.8155C-0.0946731 18.449 5.28687 23.9452 11.9209 23.9836C13.9696 23.9956 15.943 23.4943 17.6953 22.5421C17.866 22.4495 17.8924 22.2145 17.7471 22.0855L16.6251 21.0906C16.3972 20.8882 16.0725 20.8311 15.7919 20.9505C14.5687 21.471 13.2395 21.7367 11.87 21.72C6.50957 21.6542 2.17853 17.1942 2.26392 11.8337C2.34834 6.54141 6.67986 2.2617 11.9918 2.2617H21.7212V19.5556L16.201 14.6509C16.0226 14.4921 15.7487 14.5233 15.6048 14.7137C14.7188 15.887 13.2755 16.6166 11.6724 16.5058C9.44858 16.3523 7.6469 14.5622 7.47997 12.3393C7.2809 9.68764 9.3819 7.46671 11.9923 7.46671C14.3528 7.46671 16.297 9.28375 16.4999 11.5925C16.5181 11.7978 16.6107 11.9896 16.7652 12.1263L18.2028 13.4008C18.3659 13.5452 18.6249 13.457 18.6647 13.2426C18.7683 12.6885 18.8048 12.1105 18.764 11.5181C18.5323 8.14162 15.7976 5.42567 12.4197 5.21749C8.54726 4.97861 5.30941 8.00827 5.20676 11.8059C5.10651 15.5066 8.13857 18.697 11.8398 18.7786C13.3848 18.8126 14.8172 18.3267 15.9746 17.4849L23.1871 23.8785C23.4965 24.1524 23.9844 23.9332 23.9844 23.5197V0.455217C23.9839 0.203864 23.78 0 23.5287 0H11.9918Z" fill="#003DFF"/>
</svg>
